<svg width="28" height="28" viewBox="0 0 28 28" fill="none" xmlns="http://www.w3.org/2000/svg">
<path d="M28 14C28 17.713 26.525 21.274 23.8995 23.8995C21.274 26.525 17.713 28 14 28C10.287 28 6.72601 26.525 4.10051 23.8995C1.475 21.274 0 17.713 0 14C0 10.287 1.475 6.72601 4.10051 4.10051C6.72601 1.475 10.287 0 14 0C17.713 0 21.274 1.475 23.8995 4.10051C26.525 6.72601 28 10.287 28 14ZM11.6305 10.92C11.6305 9.71075 12.4932 8.6345 13.9685 8.6345C15.2915 8.6345 16.2663 9.4955 16.2663 10.7975C16.2663 12.0173 15.4455 12.95 14.6877 13.7812L9.4885 19.544V21H18.8405V19.0627H12.719V18.928L16.1735 15.043L16.3415 14.8558C17.5455 13.5205 18.5938 12.3567 18.5938 10.6033C18.5938 8.38775 16.7895 6.727 14.021 6.727C10.9445 6.727 9.40625 8.8095 9.40625 10.9305V11.0442H11.6305V10.9218V10.92Z" fill="#010D00"/>
</svg>
