<svg width="28" height="28" viewBox="0 0 28 28" fill="none" xmlns="http://www.w3.org/2000/svg">
<g clip-path="url(#clip0_848_6273)">
<path d="M1.75 14C1.75 17.2489 3.04062 20.3647 5.33794 22.6621C7.63526 24.9594 10.7511 26.25 14 26.25C17.2489 26.25 20.3647 24.9594 22.6621 22.6621C24.9594 20.3647 26.25 17.2489 26.25 14C26.25 10.7511 24.9594 7.63526 22.6621 5.33794C20.3647 3.04062 17.2489 1.75 14 1.75C10.7511 1.75 7.63526 3.04062 5.33794 5.33794C3.04062 7.63526 1.75 10.7511 1.75 14ZM28 14C28 17.713 26.525 21.274 23.8995 23.8995C21.274 26.525 17.713 28 14 28C10.287 28 6.72601 26.525 4.10051 23.8995C1.475 21.274 0 17.713 0 14C0 10.287 1.475 6.72601 4.10051 4.10051C6.72601 1.475 10.287 0 14 0C17.713 0 21.274 1.475 23.8995 4.10051C26.525 6.72601 28 10.287 28 14ZM11.6305 10.92V11.0425H9.40625V10.9305C9.40625 8.80775 10.9445 6.727 14.021 6.727C16.7895 6.727 18.5938 8.38775 18.5938 10.6033C18.5938 12.3567 17.5438 13.5205 16.3415 14.8558L16.1735 15.043L12.719 18.928V19.0627H18.8405V21H9.4885V19.544L14.686 13.7812C15.4455 12.95 16.2663 12.0173 16.2663 10.7975C16.2663 9.4955 15.2915 8.6345 13.9685 8.6345C12.4932 8.6345 11.6305 9.71075 11.6305 10.92Z" fill="#010D00"/>
</g>
<defs>
<clipPath id="clip0_848_6273">
<rect width="28" height="28" fill="white"/>
</clipPath>
</defs>
</svg>
