<svg width="34" height="24" viewBox="0 0 34 24" fill="none" xmlns="http://www.w3.org/2000/svg">
<mask id="mask0_464_60" style="mask-type:luminance" maskUnits="userSpaceOnUse" x="0" y="0" width="34" height="24">
<path d="M0 0H33.225V24H0V0Z" fill="white"/>
</mask>
<g mask="url(#mask0_464_60)">
<path d="M33.2152 20.3078C33.2152 22.3469 31.5633 24 29.5254 24H3.69766C1.66016 24 0.0078125 22.3469 0.0078125 20.3078V3.69258C0.0078125 1.65352 1.66016 0 3.69766 0H29.5254C31.5633 0 33.2152 1.65352 33.2152 3.69258V20.3078Z" fill="#009B3A"/>
</g>
<path d="M30.198 12L16.6129 22.2684L3.02734 12L16.6129 1.7309L30.198 12Z" fill="#FEDF01"/>
<path d="M22.5469 11.9301C22.5469 12.125 22.5371 12.3199 22.5184 12.5141C22.4992 12.7086 22.4703 12.9016 22.4324 13.093C22.3941 13.2844 22.3469 13.4734 22.2902 13.6605C22.2336 13.8473 22.168 14.0309 22.0934 14.2113C22.0188 14.3914 21.9355 14.568 21.8434 14.7402C21.7516 14.9121 21.6512 15.0793 21.543 15.2418C21.4344 15.4043 21.3184 15.5609 21.1945 15.7117C21.0711 15.8625 20.9402 16.007 20.802 16.1453C20.6641 16.2832 20.5199 16.4141 20.3688 16.5379C20.218 16.6617 20.0617 16.7781 19.8992 16.8867C19.7371 16.9949 19.5699 17.0953 19.398 17.1871C19.2258 17.2793 19.0496 17.3625 18.8695 17.4375C18.6891 17.5121 18.5059 17.5777 18.3191 17.6344C18.1324 17.691 17.9434 17.7387 17.752 17.7766C17.5605 17.8148 17.368 17.8434 17.1738 17.8625C16.9797 17.8816 16.7848 17.891 16.5898 17.891C16.3949 17.891 16.2 17.8816 16.0059 17.8625C15.8117 17.8434 15.6191 17.8148 15.4277 17.7766C15.2363 17.7387 15.0473 17.691 14.8605 17.6344C14.6738 17.5777 14.4902 17.5121 14.3102 17.4375C14.1301 17.3625 13.9539 17.2793 13.7816 17.1871C13.6098 17.0953 13.4426 16.9949 13.2805 16.8867C13.118 16.7781 12.9617 16.6617 12.8105 16.5379C12.6598 16.4141 12.5156 16.2832 12.3777 16.1453C12.2395 16.007 12.1086 15.8625 11.9852 15.7117C11.8613 15.5609 11.7453 15.4043 11.6367 15.2418C11.5285 15.0793 11.4281 14.9121 11.3363 14.7402C11.2441 14.568 11.1609 14.3914 11.0863 14.2113C11.0117 14.0309 10.9461 13.8473 10.8895 13.6605C10.8328 13.4734 10.7852 13.2844 10.7473 13.093C10.7094 12.9016 10.6805 12.7086 10.6613 12.5141C10.6422 12.3199 10.6328 12.125 10.6328 11.9301C10.6328 11.7348 10.6422 11.5398 10.6613 11.3457C10.6805 11.1512 10.7094 10.9586 10.7473 10.7668C10.7852 10.5754 10.8328 10.3863 10.8895 10.1996C10.9461 10.0125 11.0117 9.82891 11.0863 9.64883C11.1609 9.46836 11.2441 9.29219 11.3363 9.11992C11.4281 8.94766 11.5285 8.78047 11.6367 8.61797C11.7453 8.45586 11.8613 8.29922 11.9852 8.14805C12.1086 7.99727 12.2395 7.85273 12.3777 7.71484C12.5156 7.57656 12.6598 7.4457 12.8105 7.32188C12.9617 7.19805 13.118 7.08164 13.2805 6.97344C13.4426 6.86484 13.6098 6.76445 13.7816 6.67266C13.9539 6.58047 14.1301 6.49727 14.3102 6.42266C14.4902 6.34766 14.6738 6.28203 14.8605 6.22539C15.0473 6.16875 15.2363 6.12148 15.4277 6.0832C15.6191 6.04531 15.8117 6.01641 16.0059 5.99727C16.2 5.97813 16.3949 5.96875 16.5898 5.96875C16.7848 5.96875 16.9797 5.97813 17.1738 5.99727C17.368 6.01641 17.5605 6.04531 17.752 6.0832C17.9434 6.12148 18.1324 6.16875 18.3191 6.22539C18.5059 6.28203 18.6891 6.34766 18.8695 6.42266C19.0496 6.49727 19.2258 6.58047 19.398 6.67266C19.5699 6.76445 19.7371 6.86484 19.8992 6.97344C20.0617 7.08164 20.218 7.19805 20.3688 7.32188C20.5199 7.4457 20.6641 7.57656 20.802 7.71484C20.9402 7.85273 21.0711 7.99727 21.1945 8.14805C21.3184 8.29922 21.4344 8.45586 21.543 8.61797C21.6512 8.78047 21.7516 8.94766 21.8434 9.11992C21.9355 9.29219 22.0188 9.46836 22.0934 9.64883C22.168 9.82891 22.2336 10.0125 22.2902 10.1996C22.3469 10.3863 22.3941 10.5754 22.4324 10.7668C22.4703 10.9586 22.4992 11.1512 22.5184 11.3457C22.5371 11.5398 22.5469 11.7348 22.5469 11.9301Z" fill="#002776"/>
<path d="M11.3338 9.12656C11.0275 9.69961 10.8193 10.3293 10.7139 10.9941C14.399 10.7262 19.4006 12.7395 21.5471 15.2355C21.9178 14.6781 22.1928 14.0539 22.3615 13.3855C19.7123 10.7937 15.0588 9.11172 11.3338 9.12656Z" fill="#CBE9D4"/>
<path d="M11.0781 12.2153H12.0008V13.1383H11.0781V12.2153ZM12.0008 14.0614H12.923V14.9844H12.0008V14.0614Z" fill="#88C9F9"/>
<path d="M13.8447 12.2152H14.7674V13.1383H13.8447V12.2152ZM15.6896 13.1383H16.6123V14.0613H15.6896V13.1383ZM19.3795 14.9844H20.3018V15.9074H19.3795V14.9844ZM16.6123 15.9074H17.5346V16.8305H16.6123V15.9074ZM19.3795 10.3691H20.3018V11.2922H19.3795V10.3691Z" fill="#55ACEE"/>
<path d="M17.5352 14.0613H18.4574V14.9844H17.5352V14.0613Z" fill="#3B88C3"/>
</svg>
