<svg width="34" height="24" viewBox="0 0 34 24" fill="none" xmlns="http://www.w3.org/2000/svg">
<mask id="mask0_464_59" style="mask-type:luminance" maskUnits="userSpaceOnUse" x="0" y="0" width="34" height="24">
<path d="M0 0H33.225V24H0V0Z" fill="white"/>
</mask>
<g mask="url(#mask0_464_59)">
<path d="M32.7051 1.84609C32.066 0.746484 30.8898 0 29.5273 0H16.6133V1.84609H32.7051ZM0.00976562 18.4613H33.2172V20.3074H0.00976562V18.4613ZM16.6133 11.077H33.2172V12.923H16.6133V11.077ZM16.6133 7.38438H33.2172V9.23047H16.6133V7.38438ZM0.00976562 14.7691H33.2172V16.6152H0.00976562V14.7691ZM3.69961 24H29.5273C30.8898 24 32.066 23.2531 32.7051 22.1535H0.521875C1.16094 23.2531 2.33711 24 3.69961 24ZM16.6133 3.69219H33.2172V5.53828H16.6133V3.69219Z" fill="#B22334"/>
</g>
<mask id="mask1_464_59" style="mask-type:luminance" maskUnits="userSpaceOnUse" x="0" y="1" width="34" height="22">
<path d="M0 1.8176H33.225V22.2176H0V1.8176Z" fill="white"/>
</mask>
<g mask="url(#mask1_464_59)">
<path d="M0.0726563 20.9344C0.0882813 21.0203 0.105859 21.1059 0.126953 21.1899C0.150781 21.2832 0.180469 21.3727 0.211719 21.4633C0.29375 21.7024 0.393359 21.9332 0.519141 22.1493L0.521875 22.1536H32.7051L32.707 22.15C32.8316 21.9348 32.9313 21.7043 33.0133 21.4661C33.0445 21.3746 33.075 21.2832 33.0992 21.1883C33.1203 21.1051 33.1379 21.0203 33.1535 20.9344C33.1914 20.7313 33.2172 20.5227 33.2172 20.3075H0.00976562C0.00976562 20.5227 0.035547 20.7305 0.0726563 20.9344ZM0.00976562 16.6153H33.2172V18.4614H0.00976562V16.6153ZM0.00976562 12.9231V14.7692H33.2172V12.9231H0.00976562ZM16.6133 9.2305H33.2172V11.077H16.6133V9.2305ZM16.6133 5.53832H33.2172V7.38441H16.6133V5.53832ZM0.00976562 3.69222C0.00976562 3.47699 0.0375001 3.27035 0.0726563 3.06527C0.035547 3.26957 0.00976562 3.47699 0.00976562 3.69222ZM0.127734 2.8098C0.150781 2.71566 0.183203 2.62621 0.212891 2.53558C0.18125 2.62621 0.151953 2.71644 0.127734 2.8098ZM16.6133 3.69222H33.2172C33.2172 3.47699 33.1914 3.2684 33.1535 3.06449C33.1379 2.97972 33.1211 2.89457 33.0992 2.81176C33.0742 2.71644 33.0445 2.62426 33.0125 2.53285C32.9301 2.29457 32.8305 2.06488 32.7063 1.84965C32.707 1.84886 32.7063 1.84691 32.7051 1.84613H16.6133V3.69222Z" fill="#EEEEEE"/>
</g>
<mask id="mask2_464_59" style="mask-type:luminance" maskUnits="userSpaceOnUse" x="0" y="0" width="17" height="14">
<path d="M0 0H16.6324V13.0176H0V0Z" fill="white"/>
</mask>
<g mask="url(#mask2_464_59)">
<path d="M16.6133 0H3.69961C1.66172 0 0.00976562 1.65313 0.00976562 3.69219V12.923H16.6133V0Z" fill="#3C3B6E"/>
</g>
<path d="M1.85449 2.51602L2.4248 2.93047L2.20684 3.60001L2.77598 3.18633L3.34629 3.60001L3.12832 2.93047L3.69863 2.51602H2.99395L2.77598 1.8461L2.55918 2.51602H1.85449ZM3.69941 4.36212L4.26934 4.77696L4.05176 5.4461L4.6209 5.03243L5.19082 5.4461L4.97324 4.77696L5.54316 4.36212H4.83848L4.6209 3.69219L4.4041 4.36212H3.69941ZM7.38926 4.36212L7.95918 4.77696L7.7416 5.4461L8.31074 5.03243L8.88067 5.4461L8.66309 4.77696L9.23301 4.36212H8.52832L8.31074 3.69219L8.09395 4.36212H7.38926ZM11.0787 4.36212L11.649 4.77696L11.4311 5.4461L12.0002 5.03243L12.5705 5.4461L12.3525 4.77696L12.9229 4.36212H12.2182L12.0002 3.69219L11.7834 4.36212H11.0787ZM3.69941 8.05469L4.26934 8.46915L4.05176 9.13829L4.6209 8.72462L5.19082 9.13829L4.97324 8.46915L5.54316 8.05469H4.83848L4.6209 7.38438L4.4041 8.05469H3.69941ZM7.38926 8.05469L7.95918 8.46915L7.7416 9.13829L8.31074 8.72462L8.88067 9.13829L8.66309 8.46915L9.23301 8.05469H8.52832L8.31074 7.38438L8.09395 8.05469H7.38926ZM11.0787 8.05469L11.649 8.46915L11.4311 9.13829L12.0002 8.72462L12.5705 9.13829L12.3525 8.46915L12.9229 8.05469H12.2182L12.0002 7.38438L11.7834 8.05469H11.0787ZM5.54434 2.51602L6.11426 2.93047L5.89668 3.60001L6.46582 3.18633L7.03574 3.60001L6.81816 2.93047L7.38809 2.51602H6.6834L6.46582 1.8461L6.24902 2.51602H5.54434ZM9.23379 2.51602L9.8041 2.93047L9.58652 3.60001L10.1557 3.18633L10.7256 3.60001L10.508 2.93047L11.0779 2.51602H10.3732L10.1557 1.8461L9.93887 2.51602H9.23379ZM12.9236 2.51602L13.4936 2.93047L13.276 3.60001L13.8451 3.18633L14.4154 3.60001L14.1975 2.93047L14.7678 2.51602H14.0627L13.8451 1.8461L13.6283 2.51602H12.9236ZM1.85449 6.2086L2.4248 6.62305L2.20684 7.29219L2.77598 6.87852L3.34629 7.29219L3.12832 6.62305L3.69863 6.2086H2.99395L2.77598 5.53829L2.55918 6.2086H1.85449ZM5.89668 7.29219L6.46582 6.87852L7.03574 7.29219L6.81816 6.62305L7.38809 6.2086H6.6834L6.46582 5.53829L6.24902 6.2086H5.54434L6.11426 6.62305L5.89668 7.29219ZM9.23379 6.2086L9.8041 6.62305L9.58652 7.29219L10.1557 6.87852L10.7256 7.29219L10.508 6.62305L11.0779 6.2086H10.3732L10.1557 5.53829L9.93887 6.2086H9.23379ZM12.9236 6.2086L13.4936 6.62305L13.276 7.29219L13.8451 6.87852L14.4154 7.29219L14.1975 6.62305L14.7678 6.2086H14.0627L13.8451 5.53829L13.6283 6.2086H12.9236ZM1.85449 9.90079L2.4248 10.3152L2.20684 10.9844L2.77598 10.5711L3.34629 10.9844L3.12832 10.3152L3.69863 9.90079H2.99395L2.77598 9.23048L2.55918 9.90079H1.85449ZM5.89668 10.9844L6.46582 10.5711L7.03574 10.9844L6.81816 10.3152L7.38809 9.90079H6.6834L6.46582 9.23048L6.24902 9.90079H5.54434L6.11426 10.3152L5.89668 10.9844ZM9.23379 9.90079L9.8041 10.3152L9.58652 10.9844L10.1557 10.5711L10.7256 10.9844L10.508 10.3152L11.0779 9.90079H10.3732L10.1557 9.23048L9.93887 9.90079H9.23379ZM12.9236 9.90079L13.4936 10.3152L13.276 10.9844L13.8451 10.5711L14.4154 10.9844L14.1975 10.3152L14.7678 9.90079H14.0627L13.8451 9.23048L13.6283 9.90079H12.9236Z" fill="white"/>
</svg>
